<svg class="h-10 w-10 text-text" xmlns="http://www.w3.org/2000/svg" width="40" height="40" viewBox="0 0 128 128"><path fill="currentColor" d="M12.074 28.064v.002a.493.493 0 0 0-.488.488v2.72a3.04 3.04 0 0 0-.61-.288a3.618 3.618 0 0 0-1.156-.17c-1.012 0-1.895.363-2.53 1.068c-.649.718-.939 1.742-.939 2.996c0 1.07.162 2.004.674 2.653c.16.203.272.374.67.703c.559.461 1.301.658 2.108.658c.43 0 .817-.05 1.166-.168l.003-.002c.306-.105.579-.252.819-.433l.012.072a.493.493 0 0 0 .482.408h.879c.266 0 .49-.224.49-.49v-9.727a.495.495 0 0 0-.49-.488l-1.09-.002zm4.115.314c-.29 0-.577.097-.797.291c-.254.226-.35.557-.35.88c0 .318.098.644.343.87l.007.008c.22.195.507.291.797.291c.285 0 .564-.1.78-.289c.257-.222.365-.554.365-.88c0-.329-.106-.665-.37-.885a1.18 1.18 0 0 0-.775-.286zm-3.904.387h.668v9.305h-.49l-.096-.565a.351.351 0 0 0-.615-.166c-.254.292-.444.453-.569.522c-.43.238-.919.332-1.382.334c-.864 0-1.517-.272-2.01-.819c-.484-.54-.74-1.362-.74-2.496c0-1.146.263-1.978.76-2.527c.502-.56 1.156-.838 2.01-.838c.362 0 .673.046.93.133c.265.09.488.208.673.354l.004.001c.088.068.173.177.294.315a.349.349 0 0 0 .61-.264c-.008-.086-.015-.135-.022-.222a7.21 7.21 0 0 1-.025-.534v-2.533zm3.904.313c.13 0 .232.039.319.115l.005.006c.07.058.122.162.122.35c0 .183-.05.288-.124.35c0 .002-.002.004-.003.005a.458.458 0 0 1-.319.115a.482.482 0 0 1-.332-.115c-.067-.062-.113-.168-.113-.356c0-.193.047-.298.111-.355a.48.48 0 0 1 .334-.115zm21.768 1.595v.002c-.63 0-1.192.1-1.678.319a2.556 2.556 0 0 0-1.148.988c-.27.434-.394.95-.394 1.514c0 .545.142 1.054.43 1.488l.001.004l.002.002c.135.197.295.36.469.498a2.173 2.173 0 0 0-.178.182l-.002.001l-.025.028l-.002.004l-.002.002c-.21.273-.318.608-.318.955c0 .28.085.55.238.781c-.227.112-.44.25-.617.437l-.002.004c-.365.39-.559.894-.559 1.434c0 .746.36 1.402.986 1.813v.001h.002v.002h.002l.004.002a.237.237 0 0 0 .053.028c.62.387 1.424.556 2.398.556c1.28 0 2.304-.204 3.069-.681a2.485 2.485 0 0 0 1.203-2.158c0-.712-.28-1.345-.815-1.75l-.011-.01l-.002-.002c-.533-.4-1.244-.567-2.092-.567h-1.268c-.2 0-.36-.015-.478-.039a.323.323 0 0 1-.113-.043a.214.214 0 0 1 .052-.138a1.16 1.16 0 0 1 .24-.184c.162.02.325.04.49.04c.927 0 1.72-.225 2.313-.714c.003-.002.006-.003.008-.006c.589-.492.9-1.202.9-2.002c0-.33-.052-.646-.164-.937l-.005-.014l.605-.07a.494.494 0 0 0 .432-.486v-.668a.495.495 0 0 0-.489-.49h-2.425a2.752 2.752 0 0 0-.276-.055a3.903 3.903 0 0 0-.416-.05h-.006l-.02-.001h-.001c-.13-.012-.26-.02-.39-.02zm-15.916.026v.002h-.002c-.503 0-.987.061-1.451.185a6.67 6.67 0 0 0-1.205.44a.495.495 0 0 0-.236.63l.336.788c.106.25.407.365.654.252a7.11 7.11 0 0 1 .91-.344a3.17 3.17 0 0 1 .934-.137c.407 0 .647.092.804.233c.11.097.226.347.235.828l-.766.031h-.004c-1.21.035-2.157.234-2.846.678a2.31 2.31 0 0 0-1.078 1.986c0 .523.115 1.001.37 1.393l.001.003a2.3 2.3 0 0 0 1.014.84c.016.005.032.01.049.012l-.047-.01c.411.176.87.258 1.361.258c.449 0 .844-.043 1.19-.144l.017-.008l.018-.006l.022-.01a2.85 2.85 0 0 0 .863-.44l.004-.001l.002-.002c.028-.022.05-.047.078-.07l.035.165c.047.225.249.39.478.391h.795a.495.495 0 0 0 .489-.49v-4.656c0-.89-.24-1.639-.79-2.123c-.54-.477-1.306-.674-2.234-.674zm8.373.117c-.367 0-.723.05-1.062.15c-.34.097-.656.246-.938.444l-.004.004l-.029.023l-.014-.088a.493.493 0 0 0-.482-.408h-.879a.495.495 0 0 0-.49.488v6.852c0 .266.224.49.49.49h1.09a.495.495 0 0 0 .488-.49v-3.588c0-.752.153-1.265.387-1.574c.209-.277.58-.45 1.29-.45c.485 0 .748.112.903.274l.002.004c.162.166.275.447.275.94v4.394c0 .266.225.49.49.49h1.077a.495.495 0 0 0 .488-.49v-4.463c0-.96-.245-1.757-.814-2.273c-.555-.507-1.338-.729-2.268-.729zm15.508.021c-.726 0-1.389.155-1.96.48l-.003.003a3.361 3.361 0 0 0-1.34 1.412c-.32.61-.468 1.325-.468 2.13c0 .608.081 1.166.256 1.669c.173.499.43.936.771 1.295a3.4 3.4 0 0 0 1.227.818h.002l.004.002c.445.173.938.259 1.468.268v.002h.088v-.002a4.24 4.24 0 0 0 1.473-.268l-.047.008a.339.339 0 0 0 .049-.01a3.4 3.4 0 0 0 1.227-.818a3.57 3.57 0 0 0 .77-1.295c.173-.503.257-1.06.257-1.666c0-.806-.15-1.524-.469-2.133a3.366 3.366 0 0 0-1.342-1.412c-.56-.319-1.21-.476-1.918-.482h-.045zm-30.29.104a.493.493 0 0 0-.49.488v7.96c0 .343-.09.477-.106.491c-.088.076-.19.12-.403.12a2.25 2.25 0 0 1-.387-.03l-.002-.002a.498.498 0 0 0-.988.389v.844c0 .207.136.396.332.463c.152.051.319.09.502.123c.206.04.43.058.674.058c.504 0 .956-.087 1.338-.297c.375-.205.67-.52.851-.908v-.002c.178-.375.258-.805.258-1.275v-7.934a.495.495 0 0 0-.49-.488h-1.09zm22.325.434h.002a3.668 3.668 0 0 1 .387.02h-.02c.124.007.24.019.348.038l.012.002c.098.014.182.032.258.053a.35.35 0 0 0 .091.012h2.244v.27l-.935.11a.35.35 0 0 0-.254.536c.091.142.161.246.205.36c.077.203.117.431.117.688c0 .63-.213 1.104-.652 1.47c-.44.36-1.052.552-1.867.552c-.166 0-.345-.016-.53-.043a.348.348 0 0 0-.216.039c-.21.114-.388.239-.526.404l-.006.006a.992.992 0 0 0-.209.606c0 .164.08.362.19.468l.008.008a1 1 0 0 0 .463.22c.003.002.006.002.01.003c.18.037.387.055.624.055h1.268c.756 0 1.308.15 1.674.425v.002c.364.272.545.653.545 1.2c0 .693-.278 1.193-.871 1.564c-.599.373-1.496.574-2.7.574c-.92 0-1.607-.164-2.07-.469v-.001h-.002l-.002-.002c-.458-.3-.672-.69-.672-1.229c0-.38.121-.69.37-.955c.187-.198.468-.344.818-.453a.349.349 0 0 0 .105-.613a1.151 1.151 0 0 1-.203-.194a.685.685 0 0 1-.15-.441c0-.207.059-.378.174-.528c.088-.114.244-.247.443-.38a.35.35 0 0 0-.031-.6a1.738 1.738 0 0 1-.649-.555c-.207-.313-.31-.675-.31-1.101c0-.461.098-.837.289-1.145l.002-.002c.191-.312.465-.549.838-.717c.373-.168.835-.257 1.39-.257zM22.04 31.4h.002c.828 0 1.41.178 1.772.498c.358.316.55.83.55 1.598v4.445h-.41l-.133-.637a.35.35 0 0 0-.605-.16a3.91 3.91 0 0 1-.457.461l-.002.002h-.002c-.497.371-1.119.457-1.68.459c-.707-.014-1.398-.208-1.793-.785c-.165-.254-.256-.586-.256-1.01c0-.62.243-1.065.758-1.396c.518-.334 1.347-.534 2.49-.567h.006l1.108-.045a.35.35 0 0 0 .336-.35v-.285c0-.623-.138-1.104-.473-1.402c-.314-.28-.75-.41-1.27-.41c-.395 0-.776.056-1.138.166a7.896 7.896 0 0 0-.799.295l-.17-.4a6.18 6.18 0 0 1 .895-.315a4.892 4.892 0 0 1 1.271-.162zm8.375.115c.644 0 1.144.12 1.518.34c.198.117.342.262.437.377c.286.344.428.87.428 1.586v4.252h-.654v-4.184c0-.604-.15-1.093-.475-1.427c-.321-.336-.807-.49-1.406-.49c-.833 0-1.476.233-1.85.728c-.363.481-.527 1.15-.527 1.996v3.377h-.668v-6.428h.49l.092.563c.05.298.416.386.62.162c.287-.318.465-.534 1.126-.727l.004-.002a3.01 3.01 0 0 1 .865-.123zm15.508.022v.002c.627 0 1.163.131 1.617.39c.459.259.81.63 1.065 1.125l.002.002c.257.489.39 1.089.39 1.809c0 .543-.074 1.022-.218 1.437a2.83 2.83 0 0 1-.617 1.043c-.615.618-1.418.857-2.229.871c-.86-.017-1.666-.27-2.246-.87a2.838 2.838 0 0 1-.617-1.044a4.377 4.377 0 0 1-.217-1.437c0-.72.132-1.32.389-1.809l.002-.002a2.63 2.63 0 0 1 1.064-1.125l.002-.002c.454-.258.987-.39 1.613-.39zm-30.08.105h.668v7.72c0 .304-.036.567-.113.79a2.212 2.212 0 0 1-.283.508c-.09.114-.212.2-.348.275c-.25.137-.58.211-1.002.211c-.212 0-.392-.015-.541-.045l-.008-.002c-.101-.018-.176-.04-.258-.062v-.416c.054.01.107.028.16.037h.003l.005.002h.002c.155.027.322.039.506.039c.333 0 .635-.096.86-.29c.259-.223.35-.572.35-1.02v-7.747zm22.076.08c-.535 0-.986.15-1.302.461c-.315.31-.465.763-.465 1.307c0 .505.16.938.476 1.23c.319.294.767.432 1.305.432c.554 0 1.007-.136 1.32-.434c.31-.294.461-.732.461-1.248c0-.547-.15-1-.467-1.302c-.315-.305-.773-.446-1.328-.446zm-27.945.235c-.716 0-1.31.288-1.677.83h-.002c-.365.535-.536 1.245-.536 2.119c0 .868.169 1.561.532 2.07v.002c0 .001 0 .003.002.004c.37.509.963.773 1.681.773c.807 0 1.434-.226 1.803-.707c.361-.47.523-1.137.523-1.986v-.187c0-.896-.154-1.603-.494-2.122v-.002c-.346-.534-.992-.794-1.83-.794h-.002zm35.906.033v.002c-.507.01-.944.124-1.29.36a2.13 2.13 0 0 0-.788 1.023v.001c-.165.427-.244.923-.244 1.489c0 .57.08 1.072.244 1.506c.166.436.434.792.793 1.037c.347.24.783.358 1.285.367l.026.002l.023-.002l.014.002l.025-.002c.502-.01.938-.128 1.285-.367c.36-.245.628-.6.793-1.037c.165-.434.244-.936.244-1.506c0-.566-.079-1.062-.244-1.489a2.135 2.135 0 0 0-.787-1.025c-.346-.235-.784-.35-1.29-.36v-.001h-.022l-.028.002l-.017-.002h-.022zm-7.96.431c.44 0 .69.102.843.25l.002.004c.15.143.248.366.248.795c0 .392-.09.596-.242.74c-.146.14-.395.24-.838.24c-.424 0-.67-.095-.832-.243c-.163-.15-.248-.342-.248-.717c0-.425.098-.656.254-.809c.166-.163.399-.26.812-.26zm-27.946.235c.71 0 1.048.172 1.244.476l.002.004c.23.35.381.926.381 1.739v.187c0 .757-.154 1.266-.379 1.559c-.205.267-.564.433-1.248.433c-.566 0-.87-.15-1.113-.484c-.245-.343-.4-.887-.4-1.664c0-.782.155-1.348.414-1.727c.25-.37.545-.523 1.1-.523zm35.943.035c.428.003.731.093.948.24c.235.16.403.373.527.696l.002.001c.126.326.195.737.195 1.237c0 .504-.07.922-.197 1.258c-.124.326-.295.543-.535.707l-.002.002c-.218.15-.512.24-.926.244c-.42-.002-.716-.093-.936-.244l-.003-.002c-.24-.164-.41-.381-.534-.707c-.127-.336-.197-.756-.197-1.26c0-.5.07-.91.195-1.235l.002-.002c.124-.322.293-.536.528-.695c.214-.145.512-.236.933-.24zm-22.572 1.88l-.945.04h-.006c-.917.034-1.572.162-2.008.453c-.41.275-.644.72-.644 1.22c0 .432.159.812.459 1.038c.294.22.674.324 1.117.324c.675 0 1.257-.183 1.705-.555c.458-.38.688-.966.688-1.681v-.489a.351.351 0 0 0-.366-.35zm-.336.716v.123c0 .579-.147.905-.433 1.142c-.312.258-.704.393-1.258.393c-.338 0-.55-.071-.697-.182c-.125-.093-.18-.185-.18-.478c0-.325.074-.465.334-.639c.218-.145.79-.304 1.645-.336h.001l.588-.023zM8.262 36.93l.016.028l-.016-.028zm29.086.867c-.345 0-.654.05-.925.159c-.27.107-.497.278-.653.5l-.004.003a1.446 1.446 0 0 0-.226.819c0 .42.227.81.595 1.025h.002c.38.226.88.324 1.512.324c.609 0 1.12-.058 1.537-.183v-.002h.002l.006-.002c.414-.12.742-.297.969-.55l.002-.003a1.33 1.33 0 0 0 .35-.904c0-.307-.076-.575-.253-.766l-.005-.006c-.17-.176-.406-.282-.688-.334l-.004-.001h-.012a5.123 5.123 0 0 0-.959-.079h-1.246zm-.002.7h1.248a4.506 4.506 0 0 1 .86.068h-.014c.182.033.266.086.309.129c.025.028.064.094.064.289a.544.544 0 0 1-.164.43l-.008.007c-.11.124-.314.255-.648.35a.264.264 0 0 0-.012.004c-.323.096-.772.152-1.332.152c-.555 0-.942-.098-1.154-.224l-.004-.004c-.22-.129-.25-.181-.25-.42c0-.204.04-.33.103-.424a.69.69 0 0 1 .336-.248c.171-.068.391-.11.666-.11zm43.721 6.613v.002c-.1-.001-.198-.002-.296 0c-1.516.024-4.76.018-7.668 1.334c-2.908 1.316-5.465 4.044-5.465 9.248c0 2.2.734 4.101 1.886 5.73h-23.21V50.913H61.55v-5.35H40.186v5.35h.002v10.512h-.002v5.35h.002v12.457l-3.58-.022l-4.953.024l-7.756-12.05c1.818-.749 3.596-1.826 4.965-3.337c1.49-1.643 2.486-3.79 2.486-6.447v-.764c0-3.887-1.48-6.677-3.898-8.455c-2.418-1.778-5.725-2.563-9.4-2.647H6.25v5.41h.029v12.71h-.03v5.05h.03v15.854h6.127V68.69l6.16-.017l8.457 13.758l.012.017c.716.949 2.205 3.054 4.611 4.57l.203.13l4.862-2.565l3.894-.023h20.943V79H46.313V66.774h30.129l.031.016c1.867.853 4.131 1.626 5.895 2.738c1.763 1.113 2.998 2.487 2.998 4.674c0 2.353-1.062 3.586-2.559 4.334c-1.497.748-3.454.934-5.064.934h-.004c-3.087.019-6.718-1.293-9.819-2.329l-.548-.183v5.885l.244.111c3.043 1.387 7.55 1.928 10.135 1.83c1.853 0 5.237-.364 8.224-1.86c2.992-1.497 5.586-4.21 5.586-8.722c0-3.492-1.315-5.995-3.154-7.787c-1.84-1.792-4.183-2.892-6.276-3.707c-.793-.306-2.3-.908-3.796-1.723c-1.495-.813-2.971-1.853-3.71-2.943c-.459-.746-.743-1.577-.792-2.362c.004-2.379 1.112-3.662 2.548-4.42c1.44-.758 3.232-.918 4.403-.833c2.355.17 6.413 1.498 7.71 2.052l.413.176l.601-1.766h16.244v33.668h6.125V50.89h11.012v-5.302h-11.012v-.024h-6.125v.024H84.586c-1.175-.284-2.358-.466-3.52-.477zm-.007.834h.002c1.099.01 2.24.184 3.388.465l.05.011h22.09v-.023h4.458v.023h11.01v3.637h-11.01v33.668h-4.459V50.058H88.913l-.508 1.498c-1.637-.65-5.155-1.787-7.558-1.96c-1.301-.095-3.21.063-4.852.929c-1.643.866-2.994 2.51-2.994 5.17v.025c.058.954.392 1.913.922 2.77l.004.008l.006.005c.882 1.308 2.454 2.37 4.006 3.215c1.55.845 3.089 1.457 3.894 1.768c2.051.799 4.288 1.864 5.994 3.527c1.707 1.663 2.902 3.905 2.902 7.191c0 4.2-2.313 6.57-5.125 7.977c-2.811 1.407-6.12 1.772-7.859 1.772h-.018c-2.356.09-6.679-.443-9.52-1.66v-4.176c2.97 1 6.406 2.207 9.54 2.187c1.67 0 3.732-.171 5.434-1.021c1.702-.851 3.02-2.46 3.02-5.078c0-2.51-1.5-4.191-3.386-5.381c-1.886-1.19-4.189-1.966-5.994-2.791l-.11-.051l-.083-.04H45.482v13.89h15.236v3.892H40.605l-4.1.026l-4.607 2.43c-2.117-1.397-3.467-3.271-4.184-4.221l-8.681-14.121l-7.46.02v15.868H7.116V67.871h-.03v-3.385h.03V50.111h-.03v-3.744h10.947c3.568.082 6.708.855 8.926 2.487c2.218 1.631 3.56 4.103 3.56 7.783v.764c0 2.45-.896 4.371-2.269 5.886c-1.373 1.515-3.23 2.61-5.119 3.324l-.48.182c2.862 4.417 5.703 8.85 8.552 13.275l5.407-.025l4.414.027V65.943h-.002v-3.685h.002V50.08h-.002v-3.684H60.72v3.684H45.482v12.178h25.727l-.56-.68c-1.35-1.643-2.177-3.579-2.177-5.883c0-4.939 2.283-7.27 4.975-8.488c2.692-1.219 5.806-1.236 7.338-1.26c.091-.002.184-.003.275-.002zm-69.486 4.168v14.375h5.056c2.126 0 4.362-.313 6.113-1.367c1.752-1.055 2.973-2.902 2.973-5.721v-.764c0-2.854-1.603-4.553-3.336-5.45c-1.732-.899-3.577-1.073-4.338-1.073h-6.468zm.834.832h5.634c.62 0 2.404.175 3.955.978c1.552.804 2.887 2.16 2.887 4.713v.764c0 2.588-1.029 4.078-2.57 5.006s-3.642 1.248-5.684 1.248h-4.222v-12.71zm43.06 38.215c-.546 0-1.041.096-1.466.309a2.105 2.105 0 0 0-.862.783a2.192 2.192 0 0 0-.277.586a3.977 3.977 0 0 0-.182 1.267v.082l-.912.248a.491.491 0 0 0-.363.471v.5c0 .266.225.49.49.49h.785v5.55c0 .265.223.487.489.487h1.09c.265 0 .49-.222.49-.488v-5.549h1.302a.495.495 0 0 0 .489-.49v-.812a.493.493 0 0 0-.489-.489H54.75v-.011c0-.485.101-.784.191-.9c.105-.135.222-.2.541-.2c.158 0 .31.017.457.05l.004.003h.008c.175.034.327.073.457.113a.493.493 0 0 0 .605-.307l.284-.82a.495.495 0 0 0-.307-.623h-.002a5.513 5.513 0 0 0-.67-.172a4.31 4.31 0 0 0-.85-.078zm61.106.068a.497.497 0 0 0-.489.49v9.727c0 .266.225.488.49.488h1.085a.493.493 0 0 0 .488-.488v-2.26l.318-.277l2.223 2.838v.002a.488.488 0 0 0 .385.185h1.314c.385 0 .622-.488.383-.79l-2.838-3.587l2.592-2.619a.501.501 0 0 0 .103-.53a.503.503 0 0 0-.45-.302h-1.282a.489.489 0 0 0-.348.147l-2.386 2.422l-.004.002l-.008.007l-.004.004V89.72a.495.495 0 0 0-.488-.49h-1.084zm-61.105.633c.264 0 .501.022.712.065h.002c.146.028.257.062.377.095l-.144.422c-.104-.027-.205-.056-.322-.08l-.002-.002h-.002a2.756 2.756 0 0 0-.608-.066c-.454 0-.85.16-1.092.468h-.002c-.244.317-.34.758-.34 1.33v.362c0 .193.157.35.35.35h1.444v.39h-1.444a.35.35 0 0 0-.35.35v5.69h-.667v-5.69a.35.35 0 0 0-.35-.35h-.924v-.127l1.016-.273a.35.35 0 0 0 .258-.338v-.352c0-.35.057-.644.101-.904c.045-.264.16-.51.328-.695s.304-.31.504-.41c.306-.153.689-.235 1.155-.235zm61.318.068h.66v4.84c0 .161-.007.362-.02.602c-.006.104-.008.185-.013.273a.35.35 0 0 0 .619.242l.183-.22c.172-.204.314-.366.43-.489l.002-.001h.002l.002-.002v-.002l.004-.004l2.33-2.364h.685l-2.453 2.479a.35.35 0 0 0-.025.463l2.758 3.488h-.774l-2.388-3.049a.35.35 0 0 0-.506-.047l-.715.625a.35.35 0 0 0-.12.264v2.207h-.661V89.93zm-11.361 1.89c-.726 0-1.391.156-1.963.482v.002a3.356 3.356 0 0 0-1.34 1.41c-.32.609-.47 1.327-.47 2.133c0 .606.083 1.165.257 1.668c.173.499.43.936.771 1.294c.34.357.753.632 1.225.819h.002l.006.002a4.25 4.25 0 0 0 1.467.267v.002l.052-.002l.038.002v-.002a4.232 4.232 0 0 0 1.462-.267l.008-.002h.004a3.392 3.392 0 0 0 1.225-.819c.34-.358.598-.795.771-1.294a5.075 5.075 0 0 0 .256-1.668c0-.806-.149-1.522-.469-2.131a3.362 3.362 0 0 0-1.34-1.412l-.001-.002c-.56-.32-1.208-.474-1.916-.48l-.045-.003zm-18.768.032c-.707 0-1.355.164-1.91.496l-.01.006l-.016.008l-.002.002a3.44 3.44 0 0 0-1.287 1.453c-.296.616-.436 1.33-.436 2.125c0 .816.155 1.54.487 2.149c.327.598.802 1.07 1.396 1.384l.004.002c.596.308 1.283.455 2.037.455c.51 0 .96-.036 1.356-.115c.394-.078.788-.2 1.18-.367a.492.492 0 0 0 .298-.451v-.912a.5.5 0 0 0-.676-.453a6.412 6.412 0 0 1-1.011.326a5.07 5.07 0 0 1-1.102.107c-.649 0-1.063-.166-1.369-.482c-.222-.23-.372-.56-.441-1.01h4.431a.493.493 0 0 0 .489-.488v-.645c0-.682-.127-1.302-.399-1.844l-.002-.002a3.058 3.058 0 0 0-1.191-1.287c-.524-.309-1.143-.456-1.824-.457h-.002zm-20.297.014c-.504 0-.99.061-1.454.186a6.67 6.67 0 0 0-1.205.437v.002a.493.493 0 0 0-.234.63l.334.788c.106.25.408.366.654.252a7.21 7.21 0 0 1 .91-.346a3.17 3.17 0 0 1 .934-.135c.407 0 .647.093.805.233c.11.097.225.348.234.828l-.764.031h-.005c-1.21.035-2.158.234-2.846.678a2.31 2.31 0 0 0-1.078 1.986c0 .52.112.993.363 1.383l.004.008l.002.002l.002.004c.248.373.597.66 1.014.84l.002.002c.41.175.869.257 1.36.257c.449 0 .843-.043 1.188-.144l.006-.002a2.88 2.88 0 0 0 .914-.46l.006-.003c.029-.022.053-.049.08-.072l.035.166c.047.224.25.39.479.39h.793c.266 0 .49-.222.49-.488V94.66c0-.89-.24-1.639-.789-2.123c-.54-.476-1.307-.672-2.234-.672zm-5.165.115c-.4 0-.782.076-1.13.23h-.002l-.004.003l-.008.004a2.944 2.944 0 0 0-.719.48l-.014-.148a.493.493 0 0 0-.486-.444h-.906a.493.493 0 0 0-.488.489v6.851c0 .266.222.488.488.488h1.096c.265 0 .49-.222.49-.488V95.77c0-.215.019-.408.066-.582c.06-.22.059-.206.127-.353c.08-.173.177-.315.291-.436l.002-.004a1.44 1.44 0 0 1 .504-.357h.002c.198-.086.401-.129.627-.129a3.08 3.08 0 0 1 .684.08a.496.496 0 0 0 .601-.406l.139-.963a.494.494 0 0 0-.387-.549a3.981 3.981 0 0 0-.473-.062l-.005-.002h-.03a4.78 4.78 0 0 0-.463-.026h-.002zm13.271 0c-.35 0-.688.048-1.01.147a2.903 2.903 0 0 0-.868.435l-.008-.05a.493.493 0 0 0-.483-.407h-.88a.493.493 0 0 0-.489.489v6.851c0 .266.223.488.488.488h1.09c.266 0 .49-.222.49-.488V95.82c0-.412.041-.758.114-1.033a1.62 1.62 0 0 1 .193-.465a.966.966 0 0 1 .291-.287c.186-.12.47-.201.883-.201c.277 0 .467.052.592.123l.01.004a.6.6 0 0 1 .285.32v.002l.002.004c.074.16.127.4.127.72v4.438c0 .266.222.488.488.488h1.084a.493.493 0 0 0 .488-.488v-3.832c0-.677.146-1.12.361-1.383c.205-.248.533-.396 1.141-.396c.405 0 .607.092.752.254l.006.006c.142.154.25.434.25.914v4.437c0 .266.222.488.488.488h1.078a.493.493 0 0 0 .489-.488v-4.488c0-.945-.22-1.725-.75-2.242v-.002h-.002c-.518-.508-1.26-.733-2.133-.733c-.46 0-.9.078-1.309.235c-.3.134-.322.113-.62.322a2.7 2.7 0 0 0-.388.334a2.061 2.061 0 0 0-.65-.541c-.456-.242-.994-.35-1.598-.35h-.002zm39.354 0c-.401 0-.782.075-1.13.23h-.004l-.004.003l-.002.002l-.006.002a2.921 2.921 0 0 0-.717.48l-.014-.148a.493.493 0 0 0-.486-.444h-.906a.495.495 0 0 0-.49.489v6.851c0 .266.224.488.49.488h1.096c.265 0 .49-.222.49-.488V95.77c0-.303.047-.563.133-.789v-.002c.09-.239.205-.427.35-.58l.003-.004c.149-.16.31-.275.502-.357h.004c.198-.086.4-.129.625-.129a3.081 3.081 0 0 1 .684.08a.496.496 0 0 0 .601-.406l.139-.963a.494.494 0 0 0-.387-.549a3.984 3.984 0 0 0-.473-.062l-.005-.002h-.028a4.819 4.819 0 0 0-.465-.026zm-22.945.125a.499.499 0 0 0-.47.625l1.984 6.852c.06.207.253.353.469.353h1.228a.493.493 0 0 0 .463-.334l1.34-3.966v-.002c.018-.05.032-.1.049-.15l.043.128l1.28 3.985c.064.2.253.34.464.34h1.268a.492.492 0 0 0 .468-.354l1.99-6.852a.497.497 0 0 0-.468-.625h-1.112a.491.491 0 0 0-.47.358c-.336 1.225-.817 2.919-1.102 3.978l-.01-.033l-.002-.002l-1.279-3.963a.491.491 0 0 0-.465-.338H95.37a.49.49 0 0 0-.463.334l-1.328 3.969v.004l-.01.033c-.335-1.061-.716-2.617-1.09-3.98a.494.494 0 0 0-.473-.36h-1.129zm14.545.414h.004c.627 0 1.16.132 1.616.39v.003c.458.259.81.628 1.064 1.123l.002.004c.257.488.389 1.089.389 1.808c0 .544-.073 1.022-.217 1.438a2.83 2.83 0 0 1-.617 1.04c-.615.62-1.418.858-2.229.872c-.86-.017-1.666-.27-2.246-.871a2.838 2.838 0 0 1-.617-1.043a4.375 4.375 0 0 1-.219-1.438c0-.72.134-1.318.39-1.806v-.004a2.63 2.63 0 0 1 1.065-1.125h.002c.455-.259.988-.39 1.614-.39zm-18.764.034c.584 0 1.069.12 1.47.357c.403.238.708.567.923 1c.215.428.326.937.326 1.531v.434h-4.61a.35.35 0 0 0-.349.367c.038.76.251 1.387.678 1.828c.45.466 1.093.695 1.871.695c.468 0 .886-.04 1.256-.123c.27-.06.549-.15.832-.254v.463c-.307.122-.61.218-.912.278h-.002a6.32 6.32 0 0 1-1.219.101c-.664 0-1.233-.126-1.715-.375a2.643 2.643 0 0 1-1.107-1.101c-.264-.484-.402-1.085-.402-1.813c0-.713.125-1.317.367-1.82v-.002a2.71 2.71 0 0 1 1.023-1.16c.44-.27.96-.407 1.57-.407zm-20.297.011c.829 0 1.41.179 1.772.498c.358.316.55.83.55 1.598v4.445h-.41l-.132-.636a.35.35 0 0 0-.606-.16a3.835 3.835 0 0 1-.455.458a2.18 2.18 0 0 1-.695.348c-.258.076-.589.115-.99.115c-.414 0-.773-.068-1.084-.2a1.581 1.581 0 0 1-.71-.585c-.165-.254-.253-.586-.253-1.01c0-.62.24-1.066.756-1.398c.518-.334 1.348-.534 2.492-.566h.004l1.107-.045a.35.35 0 0 0 .336-.35v-.285c0-.624-.136-1.103-.47-1.4c-.315-.28-.752-.41-1.272-.41c-.396 0-.777.053-1.139.163c-.278.085-.54.186-.797.295l-.17-.398c.268-.117.559-.225.893-.315a4.91 4.91 0 0 1 1.273-.162zm-5.164.115a4.123 4.123 0 0 1 .461.026h-.023c.075.006.131.016.197.025l-.076.537c-.064-.01-.122-.025-.191-.033a3.785 3.785 0 0 0-.432-.027a2.26 2.26 0 0 0-1.647.71a2.392 2.392 0 0 0-.478.77a3.2 3.2 0 0 0-.121.39c-.05.219-.074.45-.074.692v3.465h-.674v-6.43h.502l.074.778c.03.323.445.433.633.168c.123-.174.225-.325.336-.436l.004-.004c.191-.193.413-.346.666-.46c.25-.112.528-.17.843-.17zm13.273 0c.522 0 .942.095 1.272.27l.004.002c.277.143.48.362.635.66a.35.35 0 0 0 .597.037c.393-.535 1.38-.962 2.057-.969c.607-.006 1.072.118 1.414.346c.216.156.22.167.377.356c.255.346.394.863.394 1.576v4.277h-.654v-4.226c0-.586-.134-1.06-.435-1.387l-.002-.002a.162.162 0 0 0-.006-.006c-.294-.322-.739-.48-1.266-.48c-.733 0-1.317.211-1.68.652c-.358.436-.521 1.052-.521 1.828v3.621h-.66v-4.226c0-.393-.061-.731-.192-1.014a1.36 1.36 0 0 0-.588-.647l-.001-.002c-.002 0-.005 0-.006-.002c-.258-.144-.57-.21-.93-.21c-.505 0-.93.097-1.264.314c-.23.15-.423.355-.56.607c-.103.19-.154.276-.258.711c-.074.31-.1.664-.1 1.055v3.414h-.668v-6.43h.493l.09.54a.35.35 0 0 0 .622.156c.113-.147.23-.271.36-.367a2.2 2.2 0 0 1 .672-.338c.25-.077.517-.116.804-.116zm39.352 0a4.122 4.122 0 0 1 .461.026h-.023c.075.006.131.016.197.025l-.076.537c-.064-.01-.124-.025-.193-.033a3.784 3.784 0 0 0-.432-.027c-.316 0-.618.064-.902.187h-.002c-.28.12-.53.296-.74.524c-.18.19-.326.417-.438.672c-.053.12-.102.256-.135.377c-.068.25-.101.518-.101.802v3.465h-.674v-6.43h.502l.072.778a.35.35 0 0 0 .635.168c.079-.112.14-.222.219-.303c.18-.186.175-.183.355-.342c.124-.11.274-.185.43-.256c.25-.111.53-.17.845-.17zm-22.664.125h.688c.483 2.047 1.012 3.38 1.351 5.043l.002.008a.491.491 0 0 0 .008.035c.082.362.595.366.682.006c.427-1.707 1.015-3.244 1.633-5.091h.869c.544 1.836 1.162 3.38 1.596 5.056c.09.355.597.347.68-.01c.38-1.626.892-3.34 1.366-5.047h.67l-1.867 6.43h-.955c-.49-1.686-1.179-3.474-1.61-5.096c-.092-.348-.588-.346-.677.004c-.469 1.707-1.103 3.452-1.656 5.092h-.918l-1.862-6.43zm14.293.167l-.002.001h-.068v.002c-.507.01-.943.125-1.289.36a2.13 2.13 0 0 0-.79 1.023c-.164.427-.243.923-.243 1.488c0 .57.08 1.074.244 1.508c.166.437.434.79.793 1.035c.347.24.783.358 1.285.368v.002h.09v-.002c.502-.01.936-.126 1.283-.366c.36-.245.627-.6.793-1.037c.165-.434.244-.938.244-1.507c0-.566-.079-1.062-.244-1.489a2.129 2.129 0 0 0-.787-1.023c-.346-.235-.782-.35-1.29-.36v-.001l-.019-.002zm-18.807.01c-.623 0-1.16.205-1.545.609c-.357.375-.55.884-.636 1.474a.35.35 0 0 0 .347.4h3.483c.2 0 .36-.166.35-.367a2.931 2.931 0 0 0-.208-1a1.754 1.754 0 0 0-.662-.82h-.002l-.002-.002h-.002l-.005-.004c-.303-.197-.68-.29-1.116-.29h-.002zm18.773.69h.002c.428.003.731.094.948.24c.235.16.401.373.525.696l.002.002c.126.325.197.736.197 1.236c0 .505-.072.923-.199 1.258c-.124.327-.293.546-.533.71h-.004c-.218.15-.51.24-.924.243c-.42-.002-.718-.092-.937-.244l-.004-.002c-.24-.163-.41-.38-.534-.707c-.127-.335-.199-.753-.199-1.258c0-.5.072-.91.197-1.236l.002-.002c.124-.323.29-.536.526-.695c.214-.146.514-.236.935-.24zm-18.77.008c.342 0 .575.072.74.182l.004.002c.18.117.303.267.398.5l.004.008c.048.112.081.247.107.394h-2.656c.085-.295.205-.527.363-.693c.254-.265.556-.393 1.04-.393zm-18.98 2.057l-.71.03c-.271.01-.567.023-.81.046c-.627.062-1.1.189-1.44.416c-.41.275-.644.721-.644 1.221c0 .431.159.812.459 1.037c.293.22.674.322 1.117.322c.675 0 1.257-.183 1.705-.554c.458-.38.688-.967.688-1.682v-.486a.351.351 0 0 0-.366-.35zm-.337.715v.121c0 .58-.147.905-.433 1.143c-.312.258-.704.394-1.258.394c-.338 0-.55-.073-.697-.183c-.125-.094-.18-.184-.18-.477c0-.325.074-.465.334-.639c.218-.145.79-.304 1.645-.336h.002l.587-.023z"/></svg>